<svg width="458" height="111" viewBox="0 0 458 111" fill="none" xmlns="http://www.w3.org/2000/svg">
<path d="M30.024 68.928C30.024 71.0613 33.9067 73.1093 41.672 75.072C46.1093 76.096 51.4853 76.9493 57.8 77.632C49.864 70.5493 42.0133 67.008 34.248 67.008C31.432 67.008 30.024 67.648 30.024 68.928ZM80.712 103.104C82.504 103.104 86.9413 96.064 94.024 81.984C84.4667 82.1547 78.4933 82.24 76.104 82.24C73.8 82.24 70.5147 82.1547 66.248 81.984C71.2827 88.0427 75.3787 94.4853 78.536 101.312C79.048 102.507 79.7733 103.104 80.712 103.104ZM120.776 16.448C117.96 16.448 114.205 19.4773 109.512 25.536C104.819 31.5093 98.5893 40 90.824 51.008C83.144 62.016 75.976 71.1467 69.32 78.4C75.2933 78.5707 80.4987 78.656 84.936 78.656C89.4587 78.656 93.0853 78.5707 95.816 78.4C101.875 66.4533 107.763 53.824 113.48 40.512C119.283 27.2 122.184 19.5627 122.184 17.6C122.184 16.832 121.715 16.448 120.776 16.448ZM102.728 78.144L129.352 76.224C130.035 76.224 130.376 76.5653 130.376 77.248C130.376 77.9307 129.779 78.656 128.584 79.424C127.475 80.192 125.256 80.704 121.928 80.96C118.6 81.216 111.56 81.472 100.808 81.728C92.104 98.7093 85.96 107.2 82.376 107.2C79.9867 107.2 78.28 106.133 77.256 104C73.5013 96.4053 69.1067 89.7493 64.072 84.032L60.36 87.616C47.7307 99.392 33.0107 105.28 16.2 105.28C11.9333 105.28 8.22133 104.939 5.064 104.256C1.82133 103.659 0.2 102.805 0.2 101.696C0.2 100.928 0.669333 100.544 1.608 100.544C2.20533 100.544 2.93067 100.715 3.784 101.056C6.344 102.08 11.1653 102.592 18.248 102.592C30.9627 102.592 42.9947 97.6 54.344 87.616C58.44 83.776 60.5307 81.8133 60.616 81.728C52.5947 81.1307 45.8533 80.064 40.392 78.528C30.664 75.7973 25.8 72.5547 25.8 68.8C25.8 67.52 26.4827 66.4533 27.848 65.6C29.2987 64.7467 31.176 64.32 33.48 64.32C43.6347 64.32 53.2773 68.8853 62.408 78.016C63.176 78.016 63.7307 78.0587 64.072 78.144C71.6667 69.952 80.9253 58.3467 91.848 43.328C95.688 38.1227 99.528 33.088 103.368 28.224C111.389 18.1547 117.96 13.12 123.08 13.12C126.408 13.12 128.072 14.5707 128.072 17.472C128.072 19.4347 125.299 27.1147 119.752 40.512C114.291 53.824 108.616 66.368 102.728 78.144ZM155.055 82.752C155.738 82.3253 156.292 82.112 156.719 82.112C157.231 82.112 157.487 82.4107 157.487 83.008V83.264C150.916 88.8107 143.962 94.016 136.623 98.88C129.37 103.744 124.762 106.176 122.799 106.176C120.836 106.176 119.172 105.792 117.807 105.024C116.527 104.341 115.887 103.531 115.887 102.592C115.887 101.653 116.143 100.885 116.655 100.288C117.167 99.6053 117.636 99.264 118.063 99.264C118.49 99.264 119.172 99.9467 120.111 101.312C121.135 102.592 122.116 103.232 123.055 103.232C125.018 103.232 126.554 101.141 127.663 96.96C128.772 92.7787 129.327 89.92 129.327 88.384C129.327 86.7627 129.199 85.952 128.943 85.952C128.772 85.952 128.602 86.0373 128.431 86.208L124.719 89.152L124.207 87.232C129.583 82.9653 132.698 80.1067 133.551 78.656C134.063 77.2907 134.788 76.608 135.727 76.608C136.324 76.608 136.623 76.8213 136.623 77.248C136.623 77.6747 136.324 78.6133 135.727 80.064C135.13 81.4293 134.319 84.5867 133.295 89.536C132.356 94.4853 131.887 97.344 131.887 98.112C131.887 98.88 132.1 99.264 132.527 99.264C138.5 95.5947 144.815 91.0293 151.471 85.568L155.055 82.752ZM168.395 88.64C167.883 88.64 167.627 88.4693 167.627 88.128C167.627 87.7013 167.926 87.232 168.523 86.72C171.339 84.416 172.747 82.3253 172.747 80.448C172.747 79.2533 171.68 78.5707 169.547 78.4C165.707 78.4853 161.099 81.2587 155.723 86.72C150.432 92.1813 147.787 96.2773 147.787 99.008C147.787 99.9467 148.299 100.416 149.323 100.416C150.432 100.416 151.883 99.6907 153.675 98.24C155.296 97.216 158.326 94.656 162.763 90.56C163.787 89.536 164.768 89.024 165.707 89.024C166.902 89.024 167.499 89.5787 167.499 90.688C167.499 91.1147 167.371 91.456 167.115 91.712C166.859 91.968 166.39 92.5227 165.707 93.376C165.024 94.144 164.427 94.8693 163.915 95.552C162.379 97.7707 161.611 99.2213 161.611 99.904C161.611 101.611 162.294 102.464 163.659 102.464C165.451 102.464 168.822 100.843 173.771 97.6C178.72 94.272 183.243 90.944 187.339 87.616L193.483 82.752C194.08 82.3253 194.635 82.112 195.147 82.112C195.659 82.112 195.915 82.4107 195.915 83.008V83.264C189.344 88.8107 182.39 94.016 175.051 98.88C167.798 103.744 163.019 106.176 160.715 106.176C157.984 106.176 156.619 104.725 156.619 101.824C156.619 101.141 156.747 100.501 157.003 99.904C157.259 99.3067 157.387 98.88 157.387 98.624C157.387 98.368 157.302 98.1973 157.131 98.112C156.875 98.112 155.211 99.264 152.139 101.568C149.152 103.872 146.507 105.024 144.203 105.024C141.984 105.024 140.875 103.829 140.875 101.44C140.875 99.0507 142.454 95.8507 145.611 91.84C148.854 87.744 153.163 84.032 158.539 80.704C163.915 77.376 169.163 75.712 174.283 75.712C175.478 75.712 176.459 76.0107 177.227 76.608C178.08 77.2053 178.507 78.144 178.507 79.424C178.507 80.6187 177.27 82.4533 174.795 84.928C172.32 87.4027 170.187 88.64 168.395 88.64ZM202.802 85.696L206.898 79.424C206.642 79.3387 206.386 79.296 206.13 79.296C202.546 79.296 197.853 82.0267 192.05 87.488C186.247 92.9493 183.346 96.7893 183.346 99.008C183.346 99.6053 183.687 99.904 184.37 99.904C186.503 99.904 189.746 98.112 194.098 94.528C198.45 90.8587 201.351 87.9147 202.802 85.696ZM231.346 83.264C213.597 97.6 202.845 104.768 199.09 104.768C197.639 104.768 196.914 103.915 196.914 102.208C196.914 100.501 197.554 97.6427 198.834 93.632C198.834 93.5467 198.749 93.504 198.578 93.504C188.765 101.611 182.237 105.664 178.994 105.664C176.775 105.664 175.666 104.853 175.666 103.232C175.666 99.648 179.506 94.4 187.186 87.488C194.951 80.576 201.138 77.12 205.746 77.12C206.343 77.12 206.983 77.5467 207.666 78.4C209.629 75.4987 220.637 59.7547 240.69 31.168C242.823 28.5227 244.53 27.2 245.81 27.2C247.175 27.2 247.858 27.6267 247.858 28.48C247.858 30.6133 240.519 40.6827 225.842 58.688C220.381 65.5147 215.346 72.64 210.738 80.064C206.215 87.4027 203.954 92.992 203.954 96.832C203.954 98.4533 204.423 99.264 205.362 99.264C206.471 99.264 208.434 98.2827 211.25 96.32C217.053 92.1387 222.13 88.2987 226.482 84.8L228.914 82.752C229.511 82.3253 230.066 82.112 230.578 82.112C231.09 82.112 231.346 82.4107 231.346 83.008V83.264ZM318.074 40.256C318.074 40.6827 317.989 41.4933 317.818 42.688C320.293 40.4693 324.047 37.0133 329.082 32.32C334.202 27.5413 338.469 23.616 341.882 20.544C345.381 17.472 349.263 14.2293 353.53 10.816C362.149 3.81866 368.89 0.319992 373.754 0.319992C374.949 0.319992 375.546 0.703992 375.546 1.47199C375.461 3.17866 374.693 4.71466 373.242 6.07999C371.791 7.35999 370.127 8.21333 368.25 8.63999C366.458 8.98133 364.069 10.0053 361.082 11.712C358.095 13.3333 354.597 15.6373 350.586 18.624C346.661 21.6107 343.119 24.384 339.962 26.944C336.805 29.504 332.794 32.832 327.93 36.928C323.066 40.9387 319.482 43.8827 317.178 45.76C316.581 48.2347 314.063 56.3413 309.626 70.08C305.274 83.8187 303.098 92.5653 303.098 96.32C303.098 101.013 305.402 103.36 310.01 103.36C312.655 103.36 315.173 102.891 317.562 101.952C320.037 100.928 321.957 99.904 323.322 98.88C324.773 97.856 325.626 97.344 325.882 97.344C326.138 97.344 326.266 97.5147 326.266 97.856C326.266 99.8187 323.791 101.867 318.842 104C313.893 106.133 310.01 107.2 307.194 107.2C301.306 107.2 298.362 104.128 298.362 97.984C298.362 92.1813 299.983 84.288 303.226 74.304C304.335 70.8907 305.829 66.4107 307.706 60.864C309.669 55.3173 310.863 51.8613 311.29 50.496C304.549 55.7013 299.941 58.304 297.466 58.304C294.991 58.304 293.754 57.3653 293.754 55.488C293.754 52.5013 296.442 48.576 301.818 43.712C307.194 38.848 311.674 36.416 315.258 36.416C317.135 36.416 318.074 37.696 318.074 40.256ZM245.626 99.264C246.053 98.6667 246.479 98.3253 246.906 98.24C247.418 98.0693 248.015 97.984 248.698 97.984C249.381 97.984 249.807 98.3253 249.978 99.008C250.149 99.6053 250.319 99.904 250.49 99.904C254.245 97.1733 259.663 91.2 266.746 81.984C273.829 72.6827 280.442 62.4853 286.586 51.392C292.73 40.2133 295.802 31.7653 295.802 26.048C295.631 22.0373 294.181 19.008 291.45 16.96C289.061 15.2533 282.789 14.4 272.634 14.4C262.565 14.4 254.543 15.424 248.57 17.472C242.682 19.4347 239.738 22.0373 239.738 25.28C239.738 27.328 241.189 28.992 244.09 30.272C247.077 31.4667 250.063 32.2773 253.05 32.704C254.245 33.0453 256.122 33.344 258.682 33.6C261.327 33.856 263.717 34.1547 265.85 34.496C267.983 34.8373 270.117 35.3067 272.25 35.904C277.029 37.3547 279.418 40.0853 279.418 44.096L278.906 44.864C277.455 42.9013 276.09 41.7067 274.81 41.28C273.53 40.768 272.634 40.4267 272.122 40.256C271.695 40.0853 270.842 39.9147 269.562 39.744C268.282 39.488 267.343 39.3173 266.746 39.232C264.954 38.976 262.522 38.6773 259.45 38.336C243.749 36.3733 235.898 32.4907 235.898 26.688C235.898 23.7013 237.391 21.1413 240.378 19.008C243.45 16.8747 247.333 15.3387 252.026 14.4C260.218 12.7787 268.282 11.968 276.218 11.968C285.519 11.968 291.962 13.0773 295.546 15.296C296.997 16.2347 298.234 17.6853 299.258 19.648C300.367 21.5253 300.922 23.7867 300.922 26.432C300.922 31.4667 296.826 40.8533 288.634 54.592C280.442 68.3307 271.653 81.0453 262.266 92.736C252.965 104.341 246.863 110.144 243.962 110.144C242.511 110.144 241.786 109.419 241.786 107.968C241.786 107.371 241.957 106.688 242.298 105.92C242.639 105.237 243.066 104.299 243.578 103.104C244.175 101.824 244.559 101.013 244.73 100.672C244.986 100.245 245.285 99.776 245.626 99.264ZM298.746 55.104C301.477 55.104 305.957 52.544 312.186 47.424C312.783 45.632 313.082 44.224 313.082 43.2C313.082 41.408 312.314 40.512 310.778 40.512C308.815 40.512 306.085 42.304 302.586 45.888C299.087 49.472 297.338 52.16 297.338 53.952C297.338 54.72 297.807 55.104 298.746 55.104ZM353.442 92.992C358.221 92.992 363.938 90.304 370.594 84.928L372.77 85.568C364.407 92.5653 357.197 96.064 351.138 96.064C350.455 96.064 349.943 96.0213 349.602 95.936C347.298 98.752 344.781 101.056 342.05 102.848C339.319 104.555 336.93 105.408 334.882 105.408C331.639 105.408 330.018 103.616 330.018 100.032C330.018 96.3627 333.047 91.4987 339.106 85.44C338.082 82.9653 337.57 80.3627 337.57 77.632C337.57 74.9013 338.551 72.6827 340.514 70.976C342.477 69.2693 344.738 68.416 347.298 68.416C349.943 68.416 352.162 69.2693 353.954 70.976C355.746 72.6827 356.642 75.1147 356.642 78.272C356.642 83.136 355.063 88 351.906 92.864C352.247 92.9493 352.759 92.992 353.442 92.992ZM349.346 91.712C351.991 87.2747 353.314 83.52 353.314 80.448C353.314 77.2907 352.546 74.9867 351.01 73.536C349.474 72 347.981 71.232 346.53 71.232C343.543 71.232 342.05 72.768 342.05 75.84C342.05 78.912 342.733 81.984 344.098 85.056C345.463 88.0427 347.213 90.2613 349.346 91.712ZM335.266 99.264C335.266 100.971 336.375 101.824 338.594 101.824C340.813 101.824 343.629 99.5627 347.042 95.04C344.738 93.8453 342.69 91.7547 340.898 88.768C337.143 92.864 335.266 96.3627 335.266 99.264ZM372.601 81.728L372.345 80.32C372.345 79.8933 373.241 79.68 375.033 79.68C376.057 79.68 376.569 80.32 376.569 81.6C376.569 82.88 375.076 85.7387 372.089 90.176C369.188 94.528 367.737 96.7893 367.737 96.96C367.737 97.1307 367.908 97.216 368.249 97.216C368.59 97.216 372.516 94.2293 380.025 88.256C387.62 82.2827 392.185 79.296 393.721 79.296C395.257 79.296 396.025 79.8507 396.025 80.96C396.025 81.984 395.598 83.1787 394.745 84.544C393.892 85.824 392.1 88.2133 389.369 91.712C386.638 95.1253 385.188 96.96 385.017 97.216C384.846 97.472 384.761 97.7707 384.761 98.112C384.761 98.4533 385.017 98.624 385.529 98.624C386.126 98.624 390.35 95.7227 398.201 89.92C406.052 84.1173 410.532 81.216 411.641 81.216C412.75 81.216 413.305 81.6853 413.305 82.624C413.305 84.3307 411.428 87.3173 407.673 91.584C403.918 95.8507 402.041 98.5813 402.041 99.776C402.041 100.885 402.468 101.44 403.321 101.44C404.26 101.44 406.521 100.245 410.105 97.856C416.505 93.5893 422.393 89.28 427.769 84.928L430.585 82.624C431.268 82.1973 431.822 81.984 432.249 81.984C432.761 81.984 433.017 82.24 433.017 82.752V83.136C415.012 98.1547 403.876 105.664 399.609 105.664C397.134 105.664 395.897 104.64 395.897 102.592C395.897 100.885 397.134 98.368 399.609 95.04C402.084 91.712 403.321 89.92 403.321 89.664C403.321 89.3227 403.193 89.152 402.937 89.152C402.766 89.152 399.268 91.584 392.441 96.448C385.7 101.312 381.689 103.744 380.409 103.744C379.812 103.744 379.3 103.531 378.873 103.104C378.446 102.592 378.233 102.08 378.233 101.568C378.233 100.032 380.068 96.9173 383.737 92.224C387.406 87.616 389.241 85.0987 389.241 84.672C389.241 84.2453 388.985 84.032 388.473 84.032C387.876 84.032 381.817 88.7253 370.297 98.112L363.897 103.232C362.788 104.171 361.934 104.64 361.337 104.64C360.825 104.64 360.313 104.469 359.801 104.128C359.289 103.872 359.033 103.445 359.033 102.848C359.033 102.251 359.758 100.8 361.209 98.496C362.745 96.192 364.708 93.376 367.097 90.048C370.766 85.0987 372.601 82.3253 372.601 81.728ZM444.157 65.344C445.01 65.344 445.65 65.6 446.077 66.112C446.589 66.624 446.845 67.3493 446.845 68.288C446.845 69.2267 446.205 70.4213 444.925 71.872C443.645 73.3227 442.536 74.048 441.597 74.048C440.658 74.048 439.976 73.792 439.549 73.28C439.122 72.6827 438.909 72.0427 438.909 71.36C438.909 70.592 439.592 69.3973 440.957 67.776C442.322 66.1547 443.389 65.344 444.157 65.344ZM454.781 82.624C455.464 82.1973 455.976 81.984 456.317 81.984C456.744 81.984 456.957 82.24 456.957 82.752V83.136C457.298 83.136 454.994 85.0133 450.045 88.768C445.181 92.5227 439.933 96.2773 434.301 100.032C428.754 103.787 425.256 105.664 423.805 105.664C421.33 105.664 420.093 104.64 420.093 102.592C420.093 100.117 422.226 95.4667 426.493 88.64C430.76 81.728 433.874 78.272 435.837 78.272C437.288 78.272 438.013 78.8267 438.013 79.936C438.013 81.0453 436.05 84.0747 432.125 89.024C428.2 93.9733 426.237 97.5147 426.237 99.648C426.237 100.843 426.664 101.44 427.517 101.44C428.456 101.44 430.717 100.245 434.301 97.856C440.701 93.5893 446.589 89.28 451.965 84.928L454.781 82.624Z" fill="#B4B4B4"/>
</svg>
